<?xml version="1.0" encoding="UTF-8"?>
<svg id="Layer_2" xmlns="http://www.w3.org/2000/svg" viewBox="0 0 705.85 151.36">
  <defs>
    <style>
      .cls-1 {
        fill: #ffffff;
      }
    </style>
  </defs>
  <g id="Layer_1-2" data-name="Layer_1">
    <g>
      <path class="cls-1" d="M216.52,46.47c-28.97,0-52.45,23.48-52.45,52.44s23.48,52.45,52.45,52.45,52.44-23.48,52.44-52.45-23.48-52.44-52.44-52.44ZM216.52,124.03c-13.87,0-25.11-11.25-25.11-25.12s11.24-25.11,25.11-25.11,25.11,11.25,25.11,25.11-11.24,25.12-25.11,25.12Z"/>
      <path class="cls-1" d="M584.84,46.47c-28.97,0-52.45,23.48-52.45,52.44s23.48,52.45,52.45,52.45,52.44-23.48,52.44-52.45-23.48-52.44-52.44-52.44ZM584.84,124.03c-13.87,0-25.12-11.25-25.12-25.12s11.25-25.11,25.12-25.11,25.11,11.25,25.11,25.11-11.25,25.12-25.11,25.12Z"/>
      <path class="cls-1" d="M382.85,46.47v60.67c0,24.42-19.8,44.22-44.22,44.22h-11.56c-24.42,0-44.22-19.8-44.22-44.22v-60.67h29.72v57.89c0,10.34,8.39,18.72,18.73,18.72h2.33c10.34,0,18.72-8.38,18.72-18.72v-57.89h30.5Z"/>
      <path class="cls-1" d="M466.2,46.47l-3.45,24h-21.62c-4,0-6.75,2.69-8.42,5.11-1.34,1.94-2.02,4.26-2.02,6.62v69.15h-30.5v-74.39c0-16.84,13.66-30.5,30.5-30.5h35.51Z"/>
      <polygon class="cls-1" points="513.57 151.36 483.07 151.36 483.07 57.29 513.57 46.47 513.57 151.36"/>
      <path class="cls-1" d="M705.85,123.02l-2.88,28.34s-40.23,1.11-40.23-40.45V16.89l30.5-10.87v102.85c0,2.58.53,5.15,1.71,7.45,1.65,3.23,4.83,6.7,10.9,6.7Z"/>
      <rect class="cls-1" x="613.68" y="46.47" width="30.5" height="104.89"/>
    </g>
    <path class="cls-1" d="M148.12,98.95C119.06,182.99-3.07,160.24.06,71.38,1.76,31.9,37.01-1.03,76.67.02c26.24.71,56.77,13.49,62.86,46.6,2.54,17.05-4.59,34.07-17.5,44.79-19.47,15.74-51.78,18.01-64.46-1.45-6.03-8.66-7.24-22.08.56-30.26,17.47-19.54,49.7-1.24,39.39,23.92-.04.12-.04.2.03.23,2.34-.69,6.46-3.79,8.5-5.91,12.16-12.18,11.32-31.27-5.1-42.96-16.08-10.86-31.05-7.05-38.12-5.48-26.25,8.12-37.89,31.66-33.98,54.73,7.29,33.83,41.82,44.56,60.86,43.51,25.83-.59,43.81-12.35,58.36-28.84l.05.04Z"/>
  </g>
</svg>
